{"title":"Sergio Bianchi - Maldita CoincidÃƒÂªncia (1979)","uid":5649487,"size":977016193,"categoryP":"video","categoryS":"movies","magnet":"?xt=urn:btih:c6648d73fbde021fd604817dace8371d7f7099e1&amp;dn=Sergio+Bianchi+-+Maldita+Coincid%C3%83%C2%AAncia+%281979%29&amp;tr=udp%3A%2F%2Ftracker.openbittorrent.com%3A80&amp;tr=udp%3A%2F%2Fopen.demonii.com%3A1337&amp;tr=udp%3A%2F%2Ftracker.coppersurfer.tk%3A6969&amp;tr=udp%3A%2F%2Fexodus.desync.com%3A6969","seeders":1,"leechers":0,"uploader":"mfccorrea","files":2,"time":1277609797,"description":"A disenchanted meditation around an utopia that failed. The film is an anti-utopia; it didn't work, but from the dream remained wonderful traces, pieces, fragments. The film reflects the sadness and the cruel solitude of what did not take place, and at the same time marvels at the rubble of utopia which may reach a stunning beauty.\n\n   General\n      Complete name : Maldita CoincidÃƒÂªncia.avi\n      Format : AVI\n      Format/Info : Audio Video Interleave\n      File size : 932 MiB\n      Duration : 1h 15mn\n      Overall bit rate : 1 726 Kbps\n      Writing application : FairUse Wizard - http://fairusewizard.com\n      Writing library : The best and REALLY easy backup tool\n   Video #0\n      ID : 0\n      Format : MPEG-4 Visual\n      Format profile : AdvancedSimple@L5\n      Format settings, BVOP : Yes\n      Format settings, QPel : No\n      Format settings, GMC : No warppoints\n      Format settings, Matrix : Default (MPEG)\n      Muxing mode : Packed bitstream\n      Codec ID : XVID\n      Codec ID/Hint : XviD\n      Duration : 1h 15mn\n      Bit rate : 1 525 Kbps\n      Width : 640 pixels\n      Height : 464 pixels\n      Display aspect ratio : 1.379\n      Frame rate : 23.976 fps\n      Resolution : 24 bits\n      Colorimetry : 4:2:0\n      Scan type : Progressive\n      Bits/(Pixel*Frame) : 0.214\n      Stream size : 823 MiB (88%)\n      Writing library : XviD 1.2.0.dev47 (UTC 2006-11-01)\n   Audio #1\n      ID : 1\n      Format : AC-3\n      Format/Info : Audio Coding 3\n      Codec ID : 2000\n      Duration : 1h 15mn\n      Bit rate mode : Constant\n      Bit rate : 192 Kbps\n      Channel(s) : 2 channels\n      Channel positions : L R\n      Sampling rate : 48.0 KHz\n      Stream size : 104 MiB (11%)\n      Alignment : Split accross interleaves\n      Interleave, duration : 42 ms (1.00 video frame)\n      Interleave, preload duration : 500 ms\n &lt;a href=&quot;\nhttp://www.imdb.com/title/tt0436560/&quot; rel=&quot;nofollow&quot; target=&quot;_NEW&quot;&gt;\nhttp://www.imdb.com/title/tt0436560/&lt;/a&gt;\n\nPortuguese audio; English subtiltes\n\nMy rip of the Brazilian DVD\n\nSergio Bianchi - Maldita CoincidÃƒÂªncia (1979)","torrent":{"xt":"urn:btih:c6648d73fbde021fd604817dace8371d7f7099e1","amp;dn":"Sergio+Bianchi+-+Maldita+Coincid%C3%83%C2%AAncia+%281979%29","amp;tr":["udp%3A%2F%2Ftracker.openbittorrent.com%3A80","udp%3A%2F%2Fopen.demonii.com%3A1337","udp%3A%2F%2Ftracker.coppersurfer.tk%3A6969","udp%3A%2F%2Fexodus.desync.com%3A6969"],"infoHash":"c6648d73fbde021fd604817dace8371d7f7099e1","infoHashBuffer":{"type":"Buffer","data":[198,100,141,115,251,222,2,31,214,4,129,125,172,232,55,29,127,112,153,225]},"announce":[],"urlList":[]}}